<?xml version="1.0" encoding="utf-8"?>
<!-- Generator: Adobe Illustrator 21.0.0, SVG Export Plug-In . SVG Version: 6.00 Build 0)  -->
<svg version="1.1" id="Capa_1" xmlns="http://www.w3.org/2000/svg" xmlns:xlink="http://www.w3.org/1999/xlink" x="0px" y="0px"
	 viewBox="0 0 512 512" style="enable-background:new 0 0 512 512;" xml:space="preserve">
<style type="text/css">
	.st0{fill:none;}
	.st1{fill:#F78B10;}
</style>
<path class="st0" d="M256,48C141.1,48,48,141.1,48,256s93.1,208,208,208s208-93.1,208-208S370.9,48,256,48z M352,128
	c17.7,0,32,21.5,32,48s-14.3,48-32,48s-32-21.5-32-48S334.3,128,352,128z M160,128c17.7,0,32,21.5,32,48s-14.3,48-32,48
	s-32-21.5-32-48S142.3,128,160,128z M256,416c-83.4,0-152.7-69.9-160-159.2c46.9,27.1,102,42.5,160,42.5s113.1-15.4,160-42.5
	C408.7,346.1,339.4,416,256,416z"/>
<path class="st1" d="M256,304.6c-58,0-113.1-17.7-160-48.6c7.3,102,76.6,182,160,182s152.7-79.9,160-181.9
	C369.1,287,314,304.6,256,304.6z"/>
<path class="st1" d="M256,0C114.6,0,0,114.6,0,256s114.6,256,256,256s256-114.6,256-256S397.4,0,256,0z M256,464
	c-114.9,0-208-93.1-208-208S141.1,48,256,48s208,93.1,208,208S370.9,464,256,464z"/>
<path class="st1" d="M127.8,188.5l-5.9,36c-0.3,2,0.5,3.9,2.1,5.1c1.6,1.2,3.8,1.3,5.5,0.3L160,213l30.4,16.8
	c0.8,0.4,1.6,0.6,2.5,0.6c1,0,2.1-0.3,3-0.9c1.6-1.2,2.5-3.1,2.1-5.1l-5.9-36L217,163c1.4-1.4,1.8-3.4,1.2-5.3
	c-0.6-1.8-2.2-3.2-4.2-3.5l-34-5.2l-15.3-32.6c-0.9-1.8-2.7-3-4.7-3s-3.9,1.2-4.7,3L140,149l-34.1,5.2c-1.9,0.3-3.5,1.7-4.2,3.5
	c-0.6,1.8-0.1,3.9,1.2,5.3L127.8,188.5z"/>
<path class="st1" d="M319.8,188.5l-5.9,36c-0.3,2,0.5,3.9,2.1,5.1c1.6,1.2,3.8,1.3,5.5,0.3L352,213l30.4,16.8
	c0.8,0.4,1.6,0.6,2.5,0.6c1,0,2.1-0.3,3-0.9c1.6-1.2,2.5-3.1,2.1-5.1l-5.9-36L409,163c1.4-1.4,1.8-3.4,1.2-5.3
	c-0.6-1.8-2.2-3.2-4.2-3.5l-34-5.2l-15.3-32.6c-0.9-1.8-2.7-3-4.7-3s-3.9,1.2-4.7,3L332,149l-34.1,5.2c-1.9,0.3-3.5,1.7-4.2,3.5
	c-0.6,1.8-0.1,3.9,1.2,5.3L319.8,188.5z"/>
</svg>
