<?xml version="1.0" encoding="utf-8"?>
<!-- Generator: Adobe Illustrator 21.0.0, SVG Export Plug-In . SVG Version: 6.00 Build 0)  -->
<svg version="1.1" id="Capa_1" xmlns="http://www.w3.org/2000/svg" xmlns:xlink="http://www.w3.org/1999/xlink" x="0px" y="0px"
	 viewBox="0 0 512 512" style="enable-background:new 0 0 512 512;" xml:space="preserve">
<style type="text/css">
	.st0{fill:#F78B10;}
	.st1{display:none;fill:#545454;}
</style>
<g>
	<ellipse class="st0" cx="160" cy="176" rx="32" ry="48"/>
	<ellipse class="st0" cx="352" cy="176" rx="32" ry="48"/>
	<path class="st0" d="M256,0C114.6,0,0,114.6,0,256s114.6,256,256,256s256-114.6,256-256S397.4,0,256,0z M256,464
		c-114.9,0-208-93.1-208-208S141.1,48,256,48s208,93.1,208,208S370.9,464,256,464z"/>
	<path class="st1" d="M256,299.4c-58,0-113.1-15.5-160-42.5c7.3,89.2,76.6,159.2,160,159.2S408.7,346.2,416,257
		C369.1,284,314,299.4,256,299.4z"/>
	<path class="st0" d="M404.2,316.1c-1.8-2.2-4.6-2.8-6.9-1.5c-37.5,21.4-86.4,33.2-137.8,33.2S159.2,336,121.7,314.6
		c-2.3-1.3-5.1-0.8-6.9,1.5c-1.8,2.2-2.3,5.6-1.1,8.3c17,41.3,77,70.2,145.9,70.2s128.8-28.8,145.9-70.2
		C406.5,321.7,406.1,318.3,404.2,316.1L404.2,316.1z"/>
</g>
</svg>
