<?xml version="1.0" encoding="utf-8"?>
<!-- Generator: Adobe Illustrator 21.0.0, SVG Export Plug-In . SVG Version: 6.00 Build 0)  -->
<svg version="1.1" id="Capa_1" xmlns="http://www.w3.org/2000/svg" xmlns:xlink="http://www.w3.org/1999/xlink" x="0px" y="0px"
	 viewBox="0 0 512 512" style="enable-background:new 0 0 512 512;" xml:space="preserve">
<style type="text/css">
	.st0{fill:#F78B10;}
	.st1{display:none;fill:#545454;}
</style>
<g>
	<ellipse class="st0" cx="160" cy="176" rx="32" ry="48"/>
	<ellipse class="st0" cx="352" cy="176" rx="32" ry="48"/>
	<path class="st0" d="M256,0C114.6,0,0,114.6,0,256s114.6,256,256,256s256-114.6,256-256S397.4,0,256,0z M256,464
		c-114.9,0-208-93.1-208-208S141.1,48,256,48s208,93.1,208,208S370.9,464,256,464z"/>
	<path class="st1" d="M256,299.4c-58,0-113.1-15.5-160-42.5c7.3,89.2,76.6,159.2,160,159.2S408.7,346.2,416,257
		C369.1,284,314,299.4,256,299.4z"/>
	<path class="st0" d="M114.8,389.8c1.8,2.9,4.6,3.6,6.9,1.9c37.5-27.8,86.4-43.1,137.8-43.1s100.3,15.3,137.8,43.1
		c2.3,1.7,5.1,1,6.9-1.9s2.3-7.2,1.1-10.8c-17-53.6-77-91-145.9-91s-128.8,37.4-145.9,91C112.5,382.6,112.9,386.9,114.8,389.8
		L114.8,389.8z"/>
</g>
</svg>
