<?xml version="1.0" encoding="utf-8"?>
<!-- Generator: Adobe Illustrator 21.0.0, SVG Export Plug-In . SVG Version: 6.00 Build 0)  -->
<svg version="1.1" id="Capa_1" xmlns="http://www.w3.org/2000/svg" xmlns:xlink="http://www.w3.org/1999/xlink" x="0px" y="0px"
	 viewBox="0 0 512 512" style="enable-background:new 0 0 512 512;" xml:space="preserve">
<style type="text/css">
	.st0{fill:#F78B10;}
</style>
<g>
	<path class="st0" d="M256,512c141.4,0,256-114.6,256-256S397.4,0,256,0S0,114.6,0,256S114.6,512,256,512z M256,48
		c114.9,0,208,93.1,208,208s-93.1,208-208,208S48,370.9,48,256S141.1,48,256,48z M256,299.4c58,0,113.1-15.4,160-42.5
		C408.7,346.1,339.4,416,256,416c-83.4,0-152.7-69.9-160-159.2C142.9,283.9,198,299.4,256,299.4z M128,176c0,26.5,14.3,48,32,48
		s32-21.5,32-48s-14.3-48-32-48S128,149.5,128,176z M320,176c0,26.5,14.3,48,32,48s32-21.5,32-48s-14.3-48-32-48S320,149.5,320,176z
		"/>
</g>
</svg>
