<?xml version="1.0" encoding="utf-8"?>
<!-- Generator: Adobe Illustrator 21.0.0, SVG Export Plug-In . SVG Version: 6.00 Build 0)  -->
<svg version="1.1" id="Calque_1" xmlns="http://www.w3.org/2000/svg" xmlns:xlink="http://www.w3.org/1999/xlink" x="0px" y="0px"
	 viewBox="0 0 512 512" style="enable-background:new 0 0 512 512;" xml:space="preserve">
<style type="text/css">
	.st0{display:none;}
	.st1{fill:#690C63;}
	.st2{fill:#FFFFFF;}
</style>
<g id="Capa_1" class="st0">
</g>
<g id="Calque_2">
	<circle class="st1" cx="256" cy="256" r="256"/>
	<g>
		<path class="st2" d="M371.5,220.7L263.9,113.1c-2.4-2.4-6-3.6-8.4-3.6c-3.6,0-5.9,1.2-8.4,3.6L139.5,220.7
			c-2.4,2.4-3.6,4.8-3.6,8.3c0,3.6,1.2,6,3.6,8.4l16.8,16.7c4.8,4.8,12,4.8,16.8,0l47.8-47.8c3.6-3.6,10.7-1.2,10.7,4.8v166.4
			c0,7.2,4.8,12,12,12h23.9c7.2,0,12-4.8,12-12V210c0-4.8,5.9-8.4,10.7-4.8L338,253c4.8,4.8,12,4.8,16.8,0l16.8-16.8
			c2.4-2.4,3.6-4.8,3.6-8.4C375.1,225.5,373.9,223.1,371.5,220.7L371.5,220.7z"/>
	</g>
</g>
</svg>
