<?xml version="1.0" encoding="utf-8"?>
<!-- Generator: Adobe Illustrator 21.0.0, SVG Export Plug-In . SVG Version: 6.00 Build 0)  -->
<svg version="1.1" id="Calque_1" xmlns="http://www.w3.org/2000/svg" xmlns:xlink="http://www.w3.org/1999/xlink" x="0px" y="0px"
	 viewBox="0 0 512 512" style="enable-background:new 0 0 512 512;" xml:space="preserve">
<style type="text/css">
	.st0{display:none;}
	.st1{fill:#690C63;}
	.st2{fill:#FFFFFF;}
</style>
<g id="Capa_1" class="st0">
</g>
<g id="Calque_2">
	<circle class="st1" cx="256" cy="256" r="256"/>
	<g>
		<path class="st2" d="M226.7,133.6L119.1,241.2c-2.4,2.4-3.6,6-3.6,8.4c0,3.6,1.2,5.9,3.6,8.4l107.6,107.6c2.4,2.4,4.8,3.6,8.3,3.6
			c3.6,0,6-1.2,8.4-3.6l16.7-16.8c4.8-4.8,4.8-12,0-16.8l-47.8-47.8c-3.6-3.6-1.2-10.7,4.8-10.7h166.4c7.2,0,12-4.8,12-12v-23.9
			c0-7.2-4.8-12-12-12H216c-4.8,0-8.4-5.9-4.8-10.7l47.8-47.8c4.8-4.8,4.8-12,0-16.8l-16.8-16.8c-2.4-2.4-4.8-3.6-8.4-3.6
			C231.5,129.9,229.1,131.2,226.7,133.6L226.7,133.6z"/>
	</g>
</g>
</svg>
